# xmcd
#
# Track frame offsets:
#	150
#	10152
#	27197
#	51070
#	68807
#	79850
#	92955
#	103297
#	118682
#	132485
#	154062
#	167600
#	182022
#	212065
#	234187
#	250760
#	265282
#	278072
#	291837
#	306060
#
# Disc length: 4386
#
# Revision: 3
# Processed by: cddbd v1.5.1PL0 Copyright (c) Steve Scherf et al.
# Submitted via: ExactAudioCopy v0.95a5
# Normalized: r2:DSETVAR1
#
DISCID=16112014
DTITLE=Various Artist - Free Soul -Actions-
DYEAR=1994
DGENRE=Unclassifiable -> General Unclassifiable
TTITLE0=Voices Of East Harlem - Cashing In
TTITLE1=First Class - Nothing You Can Do
TTITLE2=Southside Movement - You Are The One That I Need
TTITLE3=Positive Express - It's A Shame
TTITLE4=Ingram - What Else Can I Say
TTITLE5=Sir Joe Quarterman and Free Soul - I'm Gonna Get You
TTITLE6=Sylvia - Private Performance
TTITLE7=Brother To Brother - In The Bottle
TTITLE8=Voices Of East Harlem - Wanted,Dead,Or Alive
TTITLE9=Johnny Bristol - Do It To My Mind
TTITLE10=Windy City - Win Or Lose
TTITLE11=Whatnauts - Let Me Be That Special One
TTITLE12=The Moments - Sexy Mama
TTITLE13=Sylvia - Next Time That I See You
TTITLE14=Ingram - He's Mine
TTITLE15=Voices Of East Harlem - Rare So Rare
TTITLE16=Whatnauts - Instigating (Trouble Making Fool)
TTITLE17=General Crook - Thnks, But No Thanks
TTITLE18=Soul Generation - Ray Of Hope
TTITLE19=Johnny Bristol - Strangers In The Dark Corners
EXTD=
EXTT0=
EXTT1=
EXTT2=
EXTT3=
EXTT4=
EXTT5=
EXTT6=
EXTT7=
EXTT8=
EXTT9=
EXTT10=
EXTT11=
EXTT12=
EXTT13=
EXTT14=
EXTT15=
EXTT16=
EXTT17=
EXTT18=
EXTT19=
PLAYORDER=
